<?xml version="1.0" encoding="UTF-8" standalone="no"?>
<!-- Created with Inkscape (http://www.inkscape.org/) -->
<svg
   width="195.6725"
   height="189.57487"
   viewBox="0 0 195.67253 189.57488"
   version="1.1"
   id="svg1"
   xmlns="http://www.w3.org/2000/svg"
   xmlns:svg="http://www.w3.org/2000/svg">
  <defs
     id="defs1" />
  <g
     id="layer4">
    <path
       style="fill:#000000;stroke-width:1.81348"
       id="path1"
       d="m -152.17477,121.62412 a 46.188065,45.919529 0 0 1 -46.18688,45.91953 46.188065,45.919529 0 0 1 -46.18925,-45.91716 l 46.18806,-0.002 z"
       transform="translate(296.95865,-41.769493)" />
    <path
       style="fill:#ff6600;stroke-width:1.32292"
       id="path4"
       d="m 86.468349,108.48824 -14.639714,0.55684 -14.650294,0.0142 -5.053504,-13.751124 -4.540678,-13.928875 11.516477,-9.055498 11.844,-8.622701 12.171078,8.154517 11.860673,8.599753 -3.994337,14.095267 z"
       transform="matrix(0.56936653,0,0,0.94079674,57.861089,4.4080351)" />
    <path
       style="fill:#000000;stroke-width:1.32292"
       id="path5"
       d="m 86.468349,108.48824 -14.639714,0.55684 -14.650294,0.0142 -5.053504,-13.751124 -4.540678,-13.928875 11.516477,-9.055498 11.844,-8.622701 12.171078,8.154517 11.860673,8.599753 -3.994337,14.095267 z"
       transform="matrix(0.59203145,0,0,0.9289561,84.71027,4.625235)" />
    <path
       style="fill:#000000;stroke-width:1.32292"
       id="path6"
       d="m 86.468349,108.48824 -14.639714,0.55684 -14.650294,0.0142 -5.053504,-13.751124 -4.540678,-13.928875 11.516477,-9.055498 11.844,-8.622701 12.171078,8.154517 11.860673,8.599753 -3.994337,14.095267 z"
       transform="matrix(0.59203145,0,0,0.9289561,27.24372,5.162305)" />
    <path
       style="fill:#ffffff;fill-opacity:1;stroke-width:1.32292"
       id="path7"
       d="m -213.42863,139.75397 a 6.8357916,6.8357916 0 0 1 -6.47247,6.82613 6.8357916,6.8357916 0 0 1 -7.16049,-6.10052 6.8357916,6.8357916 0 0 1 5.71132,-7.47461 6.8357916,6.8357916 0 0 1 7.7676,5.30597"
       transform="translate(296.95865,-41.769493)" />
    <path
       style="fill:#ffffff;stroke-width:1.32292"
       id="path8"
       d="m -167.09715,140.51349 a 6.8357916,6.8357916 0 0 1 -6.47247,6.82613 6.8357916,6.8357916 0 0 1 -7.16049,-6.10052 6.8357916,6.8357916 0 0 1 5.71132,-7.47461 6.8357916,6.8357916 0 0 1 7.7676,5.30597"
       transform="translate(296.95865,-41.769493)" />
  </g>
</svg>
